<?xml version="1.0" standalone="no"?>
<!DOCTYPE svg PUBLIC "-//W3C//DTD SVG 20010904//EN"
 "http://www.w3.org/TR/2001/REC-SVG-20010904/DTD/svg10.dtd">
<svg version="1.0" xmlns="http://www.w3.org/2000/svg"
 width="201.000000pt" height="201.000000pt" viewBox="0 0 201.000000 201.000000"
 preserveAspectRatio="xMidYMid meet">
<metadata>
Created by potrace 1.14, written by Peter Selinger 2001-2017
</metadata>
<g transform="translate(0.000000,201.000000) scale(0.100000,-0.100000)"
fill="#000000" stroke="none">
<path d="M185 1990 c-59 -23 -126 -83 -157 -143 l-23 -42 -3 -784 -2 -783 23
-52 c33 -73 79 -121 145 -153 l57 -28 775 0 775 0 52 24 c59 26 133 99 160
157 17 37 18 88 18 819 l0 780 -28 57 c-16 32 -48 75 -73 97 -84 74 -47 71
-903 70 -733 0 -768 -1 -816 -19z m761 -234 c65 -17 144 -60 179 -96 l27 -28
-116 -82 c-64 -45 -116 -86 -116 -92 0 -6 7 -19 16 -29 16 -17 18 -17 61 13
25 17 48 26 52 21 3 -5 46 -67 96 -138 l90 -130 6 -100 c5 -81 12 -112 36
-165 40 -87 100 -152 173 -189 l60 -29 -31 -26 c-29 -24 -37 -26 -132 -26
-166 1 -361 45 -404 93 -12 12 -76 103 -144 202 -68 99 -128 183 -134 187 -14
11 -19 10 -40 -6 -22 -16 -23 -14 103 -196 45 -66 80 -120 76 -120 -15 0 -103
72 -156 127 -68 72 -115 145 -154 238 -27 64 -29 80 -29 190 0 112 2 123 28
174 31 59 114 154 128 146 4 -3 47 -62 94 -130 47 -69 90 -125 94 -125 5 0 18
8 30 18 21 17 21 17 -64 137 -46 66 -84 125 -85 132 0 10 33 24 85 36 42 10
122 6 171 -7z m262 -213 c26 -70 32 -101 32 -166 l0 -71 -71 103 c-58 84 -69
105 -57 112 8 4 26 17 39 28 33 27 45 26 57 -6z m-418 -1063 c0 -100 -2 -120
-15 -120 -12 0 -15 20 -15 120 0 100 3 120 15 120 13 0 15 -20 15 -120z m440
74 c0 -40 2 -45 18 -39 67 29 92 4 92 -92 0 -49 -3 -63 -15 -63 -12 0 -15 14
-15 65 0 53 -3 66 -19 75 -25 13 -27 13 -45 -6 -11 -10 -16 -34 -16 -75 0 -33
-4 -59 -10 -59 -6 0 -10 47 -10 120 0 73 4 120 10 120 6 0 10 -21 10 -46z
m-810 21 c17 -9 30 -22 30 -30 0 -20 -26 -19 -34 0 -7 19 -60 20 -75 1 -18
-22 -3 -43 45 -61 55 -21 80 -54 64 -84 -22 -42 -70 -52 -120 -26 -31 16 -41
45 -15 45 8 0 15 -4 15 -10 0 -16 39 -31 65 -24 21 5 25 12 23 32 -3 26 -8 30
-71 58 -59 26 -60 81 -2 104 30 13 43 12 75 -5z m710 0 c17 -9 30 -22 30 -30
0 -20 -26 -19 -34 0 -7 19 -60 20 -75 1 -18 -22 -3 -43 45 -61 55 -21 80 -54
64 -84 -13 -25 -41 -41 -70 -41 -30 0 -80 28 -80 45 0 21 16 19 41 -6 22 -22
66 -20 81 4 10 17 -10 47 -40 58 -73 26 -99 61 -71 95 28 34 67 41 109 19z
m-600 -25 c0 -10 7 -23 16 -28 15 -8 15 -10 0 -15 -12 -5 -16 -20 -16 -56 0
-40 4 -53 22 -65 27 -19 18 -31 -17 -22 -24 6 -25 10 -25 71 0 48 -4 66 -16
73 -15 8 -15 10 0 15 9 4 16 16 16 27 0 11 5 20 10 20 6 0 10 -9 10 -20z m418
-36 c14 -10 22 -25 22 -45 0 -29 -1 -29 -55 -29 -59 0 -67 -8 -34 -41 19 -19
28 -20 65 -8 24 8 16 -16 -8 -25 -60 -21 -117 31 -103 96 14 61 66 85 113 52z
m536 4 c33 -14 49 -67 34 -109 -18 -51 -67 -64 -112 -28 -21 16 -26 29 -26 64
0 35 5 48 26 64 31 24 43 26 78 9z m194 -4 c17 -12 22 -25 22 -62 0 -27 -7
-57 -16 -70 -16 -23 -58 -30 -69 -12 -12 19 -25 -1 -25 -36 0 -19 -4 -34 -10
-34 -6 0 -10 44 -10 111 0 104 1 110 19 104 11 -3 22 -1 26 5 9 15 37 12 63
-6z m-1042 -49 c10 -30 21 -52 24 -48 4 5 13 29 20 56 7 27 18 47 26 47 19 0
18 -7 -17 -107 -35 -99 -44 -113 -70 -113 -25 0 -24 16 1 23 25 7 26 36 1 102
-32 87 -34 95 -17 95 9 0 21 -20 32 -55z"/>
<path d="M579 1451 l-23 -18 67 -99 c152 -223 180 -258 220 -271 48 -16 104 4
147 53 42 48 41 100 -2 171 -33 55 -63 68 -87 39 -9 -10 -4 -25 24 -66 19 -28
35 -60 35 -70 0 -20 -54 -70 -74 -70 -28 0 -68 46 -166 190 -56 82 -106 152
-110 155 -4 3 -18 -3 -31 -14z"/>
<path d="M849 1421 c-22 -18 -22 -19 -6 -45 21 -31 28 -32 57 -8 22 18 22 19
5 45 -21 32 -26 33 -56 8z"/>
<path d="M570 1222 c-22 -18 -22 -19 -5 -45 14 -21 21 -25 35 -17 28 15 32 26
19 54 -14 31 -20 32 -49 8z"/>
<path d="M888 499 c-33 -19 -21 -39 23 -39 40 0 41 1 27 22 -18 27 -28 30 -50
17z"/>
<path d="M1428 499 c-26 -15 -25 -95 1 -109 26 -13 50 -3 62 27 12 31 2 71
-21 83 -22 12 -21 12 -42 -1z"/>
<path d="M1606 494 c-32 -32 -12 -114 28 -114 40 0 56 91 21 116 -24 18 -30
18 -49 -2z"/>
</g>
</svg>
